<?xml version="1.0" encoding="UTF-8"?>
<svg width="50" height="50" xmlns="http://www.w3.org/2000/svg" xmlns:svg="http://www.w3.org/2000/svg" xmlns:xlink="http://www.w3.org/1999/xlink">
 <!-- Created with SVG-edit - http://svg-edit.googlecode.com/ -->
 <title>Glossy Red Circle Icon with 10</title>
 <g>
  <title>Layer 1</title>
  <defs>
   <pattern height="100" width="100" y="0" x="0" patternUnits="userSpaceOnUse" id="gridpattern">
    <image height="100" width="100" y="0" x="0" id="svg_2"/>
   </pattern>
   <pattern height="100" width="100" y="0" x="0" patternUnits="userSpaceOnUse" id="svg_37">
    <image height="100" width="100" y="0" x="0" id="svg_38"/>
   </pattern>
   <pattern height="100" width="100" y="0" x="0" patternUnits="userSpaceOnUse" id="svg_68">
    <image height="100" width="100" y="0" x="0" id="svg_69"/>
   </pattern>
   <linearGradient id="svg_61">
    <stop id="svg_64" offset="0" stop-color="#ffffff"/>
    <stop id="svg_63" offset="1" stop-opacity="0" stop-color="#ffffff"/>
   </linearGradient>
   <linearGradient xlink:href="#svg_61" id="svg_60" x1="0.500015" y1="-0.000042" x2="0.500015" y2="0.892047"/>
   <pattern height="100" width="100" y="0" x="0" patternUnits="userSpaceOnUse" id="svg_58">
    <image height="100" width="100" y="0" x="0" id="svg_59"/>
   </pattern>
   <pattern height="100" width="100" y="0" x="0" patternUnits="userSpaceOnUse" id="gridpattern">
    <image height="100" width="100" y="0" x="0" id="svg_4"/>
   </pattern>
  </defs>
  <g id="svg_11">
   <rect id="svg_6" height="195.042328" width="225.400389" y="193.957686" x="223.679998" stroke-width="0" stroke="#999999" fill="#ffffff"/>
   <path id="svg_8" d="m178.59599,215.074c0,0 156.27401,-108.026 156.35002,-109.797c0.07499,-1.772 151.03299,106.49599 151.03299,106.49599c0,0 -307.38301,3.30101 -307.38301,3.30101l0,0l0,0l0,0l0,0l0,0l0,0l0,0l0,0l0,0l0,0l0,0z" stroke-width="0" stroke="#999999" fill="#ffffff"/>
  </g>
  <ellipse id="svg_3" ry="233.500005" rx="246.500005" cy="238.499995" cx="327.49997" stroke-width="0" stroke="#999999" fill="#ff0000"/>
  <g id="svg_80">
   <metadata id="svg_79">image/svg+xmlblue power button08 12 2006molumenblue power buttoniconbuttondesignUIinterfacepowerswitchonoffblueglossytoggle</metadata>
   <path d="m527.64014,173.22704a196.77449,157.93059 0 1 1 -393.54911,0a196.77449,157.93059 0 1 1 393.54911,0z" id="svg_71" stroke-miterlimit="4" fill-rule="evenodd" fill="url(#svg_60)" opacity="0.75"/>
  </g>
  <text fill="#ffffff" stroke="#999999" stroke-width="0" x="320.543252" y="147.173678" id="svg_1" font-size="15" font-family="Sans-serif" text-anchor="middle" xml:space="preserve" transform="translate(152.3814239501953,23.665170669555664) scale(1.024552583694458,1) translate(-152.3814239501953,-23.665170669555664) translate(152.3814239501953,401.0716247558594) scale(1,1.038512110710144) translate(-152.3814239501953,-401.0716247558594) translate(152.50711059570312,37.54857635498047) scale(0.9819125533103943,1) translate(-152.50711059570312,-37.54857635498047) translate(104.50711059570312,399.0705871582031) scale(1) translate(-104.50711059570312,-399.0705871582031) translate(104.50711059570312,399.5921936035156) scale(1,1.1738765239715576) translate(-104.50711059570312,-399.5921936035156) matrix(19.537230830383297,0,0,18.183000000000003,-5942.013258388358,-2315.8) " font-weight="bold">10</text>
 </g>
</svg>