<?xml version="1.0" ?><svg data-name="Layer 1" id="Layer_1" viewBox="0 0 64 64" xmlns="http://www.w3.org/2000/svg"><title/><path d="M54.58,36.62a1,1,0,0,1-.89-1.11s0-.09,0-.14a5,5,0,0,0-5-5,4.11,4.11,0,0,0-.5,0l-.37,0h-.08l-.16,0a4.43,4.43,0,0,0-.71.22l-.08,0h0l-.1,0-.19.09h0l0,0a5,5,0,0,0-2.79,4.49,5,5,0,0,0,.71,2.59,1,1,0,0,1-1.72,1,7.11,7.11,0,0,1-1-3.6,7,7,0,0,1,3.19-5.87,11.2,11.2,0,0,0-10.73-8.12c-.36,0-.71,0-1.06,0h-.1l-.17,0-.12,0-.22,0-.5.08-.36.08-.42.1a11.7,11.7,0,0,0-1.38.48l-.48.22a10.16,10.16,0,0,0-1,.52l-.2.13-.08,0-.1.07-.07,0h0l-.05,0c-.11.07-.21.14-.31.22l-.09.07-.26.2-.39.32-.22.2-.33.31-.36.39c-.14.15-.24.27-.34.39s-.25.3-.35.44a4.54,4.54,0,0,0-.27.38A10.2,10.2,0,0,0,24,27.69c-.08.17-.16.33-.23.5s-.17.41-.24.61-.1.28-.13.41-.11.37-.16.54-.09.37-.13.55-.09.43-.11.64a12.1,12.1,0,0,0-.11,1.61c0,.28,0,.56,0,.83A1,1,0,0,1,22,34.46h-.08a1,1,0,0,1-1-.92c0-.33,0-.67,0-1s0-.47,0-.71A9.42,9.42,0,0,0,14.2,35.3h0a9.48,9.48,0,0,0-.8,1.16h0a9.63,9.63,0,0,0-.63,1.29,9.28,9.28,0,0,0-.68,3.53,9.52,9.52,0,0,0,9.51,9.51H53.87a7.11,7.11,0,0,0,.71-14.19ZM23.92,39.33a1,1,0,0,1-1.36-.39q-.27-.48-.49-1a1,1,0,0,1,1.82-.82q.19.42.42.83A1,1,0,0,1,23.92,39.33Z"/><path d="M13,33.58a11.4,11.4,0,0,1,1-1l.13-.11a11.39,11.39,0,0,1,1.09-.81l.16-.11a11.41,11.41,0,0,1,1.18-.66l.18-.08a11.43,11.43,0,0,1,1.27-.5l.17,0A11.51,11.51,0,0,1,19.58,30l.12,0a11.66,11.66,0,0,1,1.5-.15c0-.19.09-.38.14-.57s.11-.41.18-.61.1-.31.15-.47.18-.48.28-.72.17-.39.26-.58a12,12,0,0,1,1-1.7,5.84,5.84,0,0,1,.34-.49c.13-.17.26-.35.41-.51s.25-.3.4-.46l.42-.45c.14-.13.26-.26.39-.37l.29-.26.41-.34.32-.25a11.83,11.83,0,0,0-7.44-8.18,10.89,10.89,0,0,1-1.36,13.73A10.92,10.92,0,0,1,3.67,28.93a11.8,11.8,0,0,0,7.6,7.28v0A11.53,11.53,0,0,1,12,34.88l0,0A11.41,11.41,0,0,1,13,33.68Z"/></svg>