<?xml version="1.0" ?><svg data-name="Layer 1" id="Layer_1" viewBox="0 0 64 64" xmlns="http://www.w3.org/2000/svg"><title/><path d="M13,25.77a11.39,11.39,0,0,1,1-1l.13-.12a11.38,11.38,0,0,1,1.08-.81l.17-.11a11.37,11.37,0,0,1,1.17-.65l.18-.08a11.42,11.42,0,0,1,1.27-.5l.17-.05a11.51,11.51,0,0,1,1.37-.33l.12,0A11.66,11.66,0,0,1,21.2,22c0-.19.09-.38.14-.56s.11-.41.18-.61.1-.31.16-.47.18-.48.28-.72.17-.38.26-.57a11.88,11.88,0,0,1,1-1.7,5.76,5.76,0,0,1,.34-.49c.13-.17.26-.35.41-.51s.25-.3.4-.47l.42-.45c.14-.14.26-.26.39-.37l.29-.26.41-.34.32-.25A11.83,11.83,0,0,0,18.74,6,10.88,10.88,0,0,1,3.67,21.11a11.8,11.8,0,0,0,7.6,7.28h0A11.54,11.54,0,0,1,12,27.06l0,0A11.42,11.42,0,0,1,13,25.87Z"/><path d="M54.58,28.8a1,1,0,0,1-.9-1.1s0-.1,0-.15a5,5,0,0,0-5-5,4.13,4.13,0,0,0-.5,0l-.37,0h-.07l-.16,0a4.48,4.48,0,0,0-.72.22l-.08,0h0l-.1,0-.18.09h0l0,0a5,5,0,0,0-2.79,4.49,5,5,0,0,0,.71,2.59,1,1,0,1,1-1.72,1,7.11,7.11,0,0,1-1-3.6,7,7,0,0,1,3.19-5.87,11.2,11.2,0,0,0-10.73-8.12c-.36,0-.71,0-1.07,0h-.1l-.18,0-.12,0-.22,0-.5.08-.36.08-.43.1a11.71,11.71,0,0,0-1.38.48l-.47.21a10.24,10.24,0,0,0-1,.52l-.2.13-.08,0-.09.06-.07.05h0l0,0c-.11.07-.21.14-.31.22l-.09.07-.26.2-.39.32-.23.2-.32.3-.38.4c-.13.14-.24.26-.34.39s-.25.3-.35.44a4.34,4.34,0,0,0-.26.37A10.12,10.12,0,0,0,24,19.88c-.08.17-.16.33-.23.5s-.17.4-.24.61-.1.28-.13.4-.11.37-.16.54-.09.37-.13.55-.08.43-.11.64a12.18,12.18,0,0,0-.11,1.61c0,.28,0,.56,0,.83A1,1,0,0,1,22,26.64h-.08a1,1,0,0,1-1-.92c0-.33,0-.67,0-1s0-.47,0-.71A9.43,9.43,0,0,0,12.76,30a9.29,9.29,0,0,0-.68,3.53A9.52,9.52,0,0,0,21.59,43H53.87a7.11,7.11,0,0,0,.72-14.19ZM23.92,31.51a1,1,0,0,1-1.36-.39q-.27-.48-.49-1a1,1,0,1,1,1.82-.82q.19.42.42.83A1,1,0,0,1,23.92,31.51Z"/><path d="M25.19,47.78a1,1,0,0,0-1.22.71l-1.53,5.7a1,1,0,1,0,1.93.52L25.9,49A1,1,0,0,0,25.19,47.78Z"/><path d="M35.8,48.49l-1.53,5.7a1,1,0,1,0,1.93.52L37.73,49a1,1,0,0,0-1.93-.52Z"/><path d="M47.63,48.49l-1.53,5.7A1,1,0,1,0,48,54.7L49.56,49a1,1,0,0,0-1.93-.52Z"/><path d="M28.3,59.63a1,1,0,0,0,1-.74L31.91,49A1,1,0,0,0,30,48.49l-2.65,9.88a1,1,0,0,0,1,1.26Z"/><path d="M41.82,48.49,38.9,59.36a1,1,0,1,0,1.93.52L43.75,49a1,1,0,0,0-1.93-.52Z"/></svg>