<?xml version="1.0" ?><svg data-name="Layer 1" id="Layer_1" viewBox="0 0 64 64" xmlns="http://www.w3.org/2000/svg"><title/><path d="M23.89,29.5a1,1,0,1,0-1.82.82q.23.5.49,1a1,1,0,0,0,1.75-1C24.16,30.05,24,29.78,23.89,29.5Z"/><path d="M29.24,14.83l.5-.23a11.59,11.59,0,0,1,1.38-.48l.42-.1.36-.08.5-.08.22,0,.12,0,.17,0H33c.35,0,.71,0,1.07,0a11.2,11.2,0,0,1,10.73,8.12,7,7,0,0,0-3.19,5.87,7.11,7.11,0,0,0,1,3.6,1,1,0,1,0,1.72-1,5,5,0,0,1-.71-2.59,5,5,0,0,1,2.79-4.49l0,0h0l.19-.09.09,0h0l.08,0a4.38,4.38,0,0,1,.71-.22l.16,0h.07l.37,0a4.11,4.11,0,0,1,.5,0,5,5,0,0,1,5,5s0,.1,0,.14A1,1,0,0,0,54.58,29a7.11,7.11,0,0,1-.71,14.19H39.25l.48-1.78a1,1,0,0,0-1-1.26H32.22l3.19-11.89a1,1,0,0,0-1.93-.52L30,40.87a1,1,0,0,1,0,.26s0,0,0,.07a1.47,1.47,0,0,0,.1.37,1.55,1.55,0,0,0,.23.3l.15.1a1,1,0,0,0,.18.09l.06,0a1,1,0,0,0,.26,0h6.54l-.28,1H21.59a9.52,9.52,0,0,1-9.51-9.51,9.28,9.28,0,0,1,.68-3.53,9.42,9.42,0,0,1,8.17-5.93c0,.24,0,.47,0,.71s0,.67,0,1a1,1,0,0,0,1,.92H22a1,1,0,0,0,.91-1.08c0-.28,0-.56,0-.83A12.08,12.08,0,0,1,23,23.29c0-.21.07-.42.11-.64s.09-.38.13-.56.09-.34.15-.53.08-.26.13-.41.15-.39.24-.61.15-.33.23-.5a10.32,10.32,0,0,1,.85-1.46c.08-.12.17-.25.27-.38s.2-.27.35-.44.21-.25.34-.39l.35-.38c.09-.09.18-.19.34-.32l.22-.2.39-.33.26-.2.09-.07a3.67,3.67,0,0,1,.31-.22l.05,0h0l.07-.05.09-.06h0l.07,0,.21-.13A10,10,0,0,1,29.24,14.83ZM17.38,19.92A10.9,10.9,0,0,0,18.74,6.18a11.83,11.83,0,0,1,7.44,8.18l-.33.25-.41.34-.29.26c-.14.12-.27.25-.4.38l-.42.45c-.16.17-.31.34-.4.47s-.28.34-.41.51a5.82,5.82,0,0,0-.34.49,12,12,0,0,0-1,1.69c-.09.2-.19.39-.27.6s-.2.48-.28.71-.11.33-.15.47-.12.4-.18.61-.1.38-.14.57a11.66,11.66,0,0,0-1.5.15l-.12,0a11.5,11.5,0,0,0-1.37.33L18,22.7a11.43,11.43,0,0,0-1.27.49l-.18.08a11.39,11.39,0,0,0-1.17.65l-.17.11a11.38,11.38,0,0,0-1.08.81L14,25a11.38,11.38,0,0,0-1,1L13,26a11.43,11.43,0,0,0-.89,1.14l0,0a11.53,11.53,0,0,0-.76,1.31v0a11.8,11.8,0,0,1-7.6-7.28A10.92,10.92,0,0,0,17.38,19.92Z"/><path d="M24,48.32,22.44,54a1,1,0,1,0,1.93.52l1.53-5.7A1,1,0,0,0,24,48.32Z"/><path d="M47.63,48.32,46.1,54a1,1,0,1,0,1.93.52l1.53-5.7a1,1,0,0,0-1.93-.52Z"/><path d="M30,48.32l-2.65,9.88a1,1,0,1,0,1.93.52l2.65-9.88A1,1,0,0,0,30,48.32Z"/><path d="M41.82,48.32,38.9,59.19a1,1,0,1,0,1.93.52l2.91-10.87a1,1,0,0,0-1.93-.52Z"/></svg>