<?xml version="1.0" ?><svg data-name="Layer 1" id="Layer_1" viewBox="0 0 64 64" xmlns="http://www.w3.org/2000/svg"><title/><path d="M54.58,27a1,1,0,0,1-.9-1.1s0-.1,0-.15a5,5,0,0,0-5-5,4.13,4.13,0,0,0-.5,0l-.37,0h-.08l-.16,0a4.47,4.47,0,0,0-.72.22l-.08,0h0l-.09,0-.19.09h0l0,0a5,5,0,0,0-2.79,4.49,5,5,0,0,0,.71,2.59,1,1,0,1,1-1.72,1,7.11,7.11,0,0,1-1-3.6,7,7,0,0,1,3.19-5.87,11.2,11.2,0,0,0-10.73-8.12c-.36,0-.71,0-1.07,0h-.11l-.17,0-.12,0-.22,0-.5.08-.36.08-.42.1a11.63,11.63,0,0,0-1.38.48l-.48.22a9.94,9.94,0,0,0-1,.52l-.19.12-.09.06-.1.06-.08.06,0,0c-.11.07-.21.14-.31.22l-.09.07-.26.2-.39.33-.22.2c-.15.13-.24.22-.32.31l-.37.4c-.13.14-.24.26-.34.39s-.25.3-.35.44a4.4,4.4,0,0,0-.26.37A10.13,10.13,0,0,0,24,18c-.08.17-.16.33-.23.5s-.17.4-.24.61-.1.28-.13.41-.11.37-.16.54-.09.37-.13.55-.08.43-.11.64a12.18,12.18,0,0,0-.11,1.61c0,.28,0,.56,0,.83A1,1,0,0,1,22,24.8h-.08a1,1,0,0,1-1-.92c0-.33,0-.67,0-1s0-.47,0-.71a9.43,9.43,0,0,0-8.17,5.93,9.29,9.29,0,0,0-.68,3.53,9.52,9.52,0,0,0,9.51,9.51H53.87A7.11,7.11,0,0,0,54.58,27ZM23.92,29.67a1,1,0,0,1-1.36-.39q-.27-.48-.49-1a1,1,0,0,1,1.82-.83q.19.42.42.83A1,1,0,0,1,23.92,29.67Z"/><path d="M13,23.93a11.37,11.37,0,0,1,1-1l.13-.12A11.38,11.38,0,0,1,15.25,22l.17-.11a11.4,11.4,0,0,1,1.18-.65l.18-.08a11.43,11.43,0,0,1,1.27-.5l.17,0a11.5,11.5,0,0,1,1.37-.33l.12,0a11.66,11.66,0,0,1,1.5-.15c0-.19.09-.38.14-.56s.11-.41.18-.61.1-.31.16-.47.18-.48.28-.72.17-.39.26-.58a11.7,11.7,0,0,1,1-1.69,5.45,5.45,0,0,1,.34-.49c.13-.17.26-.35.41-.51s.25-.3.4-.46l.42-.45c.14-.14.26-.26.4-.38l.29-.26.41-.34.33-.25a11.83,11.83,0,0,0-7.44-8.18A10.88,10.88,0,0,1,3.66,19.27a11.8,11.8,0,0,0,7.6,7.28h0A11.53,11.53,0,0,1,12,25.22l0,0A11.41,11.41,0,0,1,13,24Z"/><path d="M24.4,49.76a1,1,0,0,0-1-1h-.78l.55-.55a1,1,0,0,0-1.41-1.41l-.55.55v-.78a1,1,0,0,0-2,0v.78l-.55-.55a1,1,0,0,0-1.41,1.41l.55.55H17a1,1,0,0,0,0,2h.78l-.55.55a1,1,0,1,0,1.41,1.41l.55-.55V53a1,1,0,0,0,2,0v-.78l.55.55a1,1,0,0,0,1.41-1.41l-.55-.55h.78A1,1,0,0,0,24.4,49.76Z"/><path d="M42.59,49.76a1,1,0,0,0-1-1h-.78l.55-.55a1,1,0,0,0-1.41-1.41l-.55.55v-.78a1,1,0,0,0-2,0v.78l-.55-.55a1,1,0,0,0-1.41,1.41l.55.55h-.78a1,1,0,1,0,0,2H36l-.55.55a1,1,0,1,0,1.41,1.41l.55-.55V53a1,1,0,0,0,2,0v-.78l.55.55a1,1,0,0,0,1.41-1.41l-.55-.55h.78A1,1,0,0,0,42.59,49.76Z"/><path d="M60.77,49.76a1,1,0,0,0-1-1H59l.55-.55a1,1,0,0,0-1.41-1.41l-.55.55v-.78a1,1,0,0,0-2,0v.78L55,46.8a1,1,0,0,0-1.41,1.41l.55.55h-.78a1,1,0,0,0,0,2h.78l-.55.55A1,1,0,1,0,55,52.73l.55-.55V53a1,1,0,0,0,2,0v-.78l.55.55a1,1,0,0,0,1.41-1.41L59,50.76h.78A1,1,0,0,0,60.77,49.76Z"/><path d="M33.5,58.27a1,1,0,0,0-1-1h-.78l.55-.55a1,1,0,0,0-1.41-1.41l-.55.55v-.78a1,1,0,0,0-2,0v.78l-.55-.55a1,1,0,0,0-1.41,1.41l.55.55h-.78a1,1,0,0,0,0,2h.78l-.55.55a1,1,0,1,0,1.41,1.41l.55-.55v.78a1,1,0,0,0,2,0v-.78l.55.55a1,1,0,0,0,1.41-1.41l-.55-.55h.78A1,1,0,0,0,33.5,58.27Z"/><path d="M51.68,58.27a1,1,0,0,0-1-1H49.9l.55-.55A1,1,0,0,0,49,55.31l-.55.55v-.78a1,1,0,0,0-2,0v.78l-.55-.55a1,1,0,0,0-1.41,1.41l.55.55H44.3a1,1,0,0,0,0,2h.78l-.55.55a1,1,0,1,0,1.41,1.41l.55-.55v.78a1,1,0,0,0,2,0v-.78l.55.55a1,1,0,0,0,1.41-1.41l-.55-.55h.78A1,1,0,0,0,51.68,58.27Z"/></svg>