<?xml version="1.0" ?><svg data-name="Layer 1" id="Layer_1" viewBox="0 0 64 64" xmlns="http://www.w3.org/2000/svg"><title/><path d="M16.56,57.23a1,1,0,0,0,1,1H18.9l-.94.94a1,1,0,1,0,1.41,1.41l.94-.94V61a1,1,0,0,0,2,0V59.64l.94.94a1,1,0,0,0,1.41-1.41l-.94-.94h1.34a1,1,0,0,0,0-2H23.73l.94-.94a1,1,0,0,0-1.41-1.41l-.94.94V53.48a1,1,0,0,0-2,0v1.34l-.94-.94A1,1,0,0,0,18,55.28l.94.94H17.56A1,1,0,0,0,16.56,57.23Z"/><path d="M37.94,57.23a1,1,0,0,0,1,1h1.34l-.94.94a1,1,0,1,0,1.41,1.41l.94-.94V61a1,1,0,0,0,2,0V59.64l.94.94A1,1,0,0,0,46,59.17l-.94-.94h1.34a1,1,0,0,0,0-2H45.1l.94-.94a1,1,0,0,0-1.41-1.41l-.94.94V53.48a1,1,0,0,0-2,0v1.34l-.94-.94a1,1,0,0,0-1.41,1.41l.94.94H38.94A1,1,0,0,0,37.94,57.23Z"/><path d="M14.38,46.23H13l.94-.94a1,1,0,0,0-1.41-1.41l-.94.94V43.48a1,1,0,0,0-2,0v1.34l-.94-.94a1,1,0,0,0-1.41,1.41l.94.94H6.88a1,1,0,0,0,0,2H8.21l-.94.94a1,1,0,1,0,1.41,1.41l.94-.94V51a1,1,0,0,0,2,0V49.64l.94.94A1,1,0,0,0,14,49.17L13,48.23h1.34a1,1,0,0,0,0-2Z"/><path d="M35.75,46.23H34.41l.94-.94a1,1,0,0,0-1.41-1.41l-.94.94V43.48a1,1,0,0,0-2,0v1.34l-.94-.94a1,1,0,0,0-1.41,1.41l.94.94H28.25a1,1,0,0,0,0,2h1.34l-.94.94a1,1,0,1,0,1.41,1.41l.94-.94V51a1,1,0,0,0,2,0V49.64l.94.94a1,1,0,0,0,1.41-1.41l-.94-.94h1.34a1,1,0,0,0,0-2Z"/><path d="M57.13,46.23H55.79l.94-.94a1,1,0,0,0-1.41-1.41l-.94.94V43.48a1,1,0,0,0-2,0v1.34l-.94-.94A1,1,0,0,0,50,45.28l.94.94H49.63a1,1,0,0,0,0,2H51l-.94.94a1,1,0,1,0,1.41,1.41l.94-.94V51a1,1,0,0,0,2,0V49.64l.94.94a1,1,0,0,0,1.41-1.41l-.94-.94h1.34a1,1,0,0,0,0-2Z"/><path d="M53.3,22a1,1,0,0,1-.89-1.12,1.54,1.54,0,0,0,0-.18,6.1,6.1,0,0,0-7.49-5.95h0a6,6,0,0,0-.6.18l-.07,0a5.83,5.83,0,0,0-.6.26h0a6.1,6.1,0,0,0-2.53,8.59,1,1,0,1,1-1.72,1,8.1,8.1,0,0,1,2.64-11A13.4,13.4,0,0,0,29.12,4c-.39,0-.77,0-1.15.05h-.08a13.43,13.43,0,0,0-12,11.37,1,1,0,0,1-.2.45,13.4,13.4,0,0,0-.09,1.47q0,.51,0,1a1,1,0,0,1-.92,1.07h-.08a1,1,0,0,1-1-.93q0-.57,0-1.15c0-.35,0-.69.05-1a11.38,11.38,0,0,0,.72,22.75H52.44A8.56,8.56,0,0,0,53.3,22ZM17.06,25.21a1,1,0,0,1-1.36-.39q-.31-.56-.57-1.14a1,1,0,1,1,1.82-.82q.23.51.5,1A1,1,0,0,1,17.06,25.21Z"/></svg>