<?xml version="1.0" ?><svg data-name="Layer 1" id="Layer_1" viewBox="0 0 64 64" xmlns="http://www.w3.org/2000/svg"><title/><path d="M55.47,25.83a1,1,0,0,1-.9-1.1v-.12a4.26,4.26,0,0,0-4.25-4.25l-.42,0-.31,0h-.07l-.12,0a3.78,3.78,0,0,0-.61.19l-.07,0h0l-.09,0-.14.07h0l0,0a4.21,4.21,0,0,0-2.35,3.79,4.27,4.27,0,0,0,.6,2.19,1,1,0,0,1-1.72,1,6.33,6.33,0,0,1-.88-3.2,6.19,6.19,0,0,1,2.75-5.17,9.63,9.63,0,0,0-9.19-6.88c-.31,0-.61,0-.92,0h-.09l-.14,0-.12,0-.19,0-.42.07-.31.07-.36.09a10,10,0,0,0-1.19.42l-.43.2a8.55,8.55,0,0,0-.81.44l-.38.25-.33.23-.07,0-.21.16-.35.29-.19.17-.29.28-.3.32c-.12.13-.21.23-.29.34s-.22.26-.3.38-.16.21-.22.32A8.85,8.85,0,0,0,29,18c-.07.16-.14.29-.19.43s-.15.35-.21.52-.08.24-.11.35-.1.32-.14.47-.08.31-.11.47-.07.36-.1.54A10.46,10.46,0,0,0,28,22.16c0,.24,0,.48,0,.71A1,1,0,0,1,27.14,24h-.09a1,1,0,0,1-1-.92c0-.29,0-.59,0-.88s0-.33,0-.5a8.15,8.15,0,0,0,.69,16.28H54.86a6.07,6.07,0,0,0,.61-12.1ZM28.84,28.18a1,1,0,0,1-1.36-.39q-.23-.42-.43-.86a1,1,0,1,1,1.82-.82c.11.24.23.48.36.71A1,1,0,0,1,28.84,28.18Z"/><path d="M19,23.29l.28-.32.24-.25.3-.29.26-.23.32-.27.27-.21.34-.24.29-.19.36-.22.3-.17.38-.19.31-.15.4-.17.31-.12.42-.14L24,20l.45-.11.3-.07.51-.08.26,0c.26,0,.52-.05.78-.07l.1-.4c.05-.19.1-.37.16-.54s.08-.27.14-.41.15-.41.24-.62.15-.35.23-.51A10.53,10.53,0,0,1,28,15.64a5.18,5.18,0,0,1,.3-.43c.11-.15.23-.31.36-.45s.22-.26.36-.41l.37-.39c.11-.11.23-.23.35-.33l.11-.11h0a3.16,3.16,0,0,0-2.28-.69l-.22,0-.16,0-.11,0-.11,0-.13,0a2.58,2.58,0,0,0-.35.15h0A3.16,3.16,0,0,0,24.77,16a3.09,3.09,0,0,0,.44,1.6,1,1,0,1,1-1.71,1A5.08,5.08,0,0,1,22.77,16a5.18,5.18,0,0,1,2.14-4.17,7.41,7.41,0,0,0-7-5.14,7.11,7.11,0,0,0-1.84.23L15.74,7l-.15,0-.2.07L15,7.22a7.34,7.34,0,0,0-1.26.69l-.27.19-.28.22-.29.25-.22.21L12.49,9a7.3,7.3,0,0,0-.5.6l-.2.29a6.76,6.76,0,0,0-.54.93c-.06.11-.1.21-.15.32s-.09.22-.13.33a7.38,7.38,0,0,0-.37,1.42A7.15,7.15,0,0,0,10.53,14c0,.18,0,.37,0,.56a1,1,0,0,1-.93,1.07H9.55a1,1,0,0,1-1-.93c0-.23,0-.47,0-.7,0-.06,0-.1,0-.16a6.22,6.22,0,0,0,.77,12.4h7.92v0l.09-.21c.07-.17.14-.35.22-.51l.13-.26c.07-.14.14-.29.22-.43l.16-.27.24-.38.19-.27.26-.35Z"/><path d="M9.7,18.56a1,1,0,0,0,1.75-1q-.15-.27-.27-.55a1,1,0,1,0-1.82.82C9.46,18.1,9.58,18.34,9.7,18.56Z"/><path d="M18,46.66a1,1,0,0,0-1-1h-.78l.55-.55a1,1,0,1,0-1.41-1.41l-.55.55v-.78a1,1,0,0,0-2,0v.78l-.55-.55a1,1,0,0,0-1.41,1.41l.55.55h-.78a1,1,0,0,0,0,2h.78l-.55.55a1,1,0,1,0,1.41,1.41l.55-.55v.78a1,1,0,0,0,2,0v-.78l.55.55a1,1,0,1,0,1.41-1.41l-.55-.55H17A1,1,0,0,0,18,46.66Z"/><path d="M36.19,46.66a1,1,0,0,0-1-1h-.78l.55-.55a1,1,0,0,0-1.41-1.41l-.55.55v-.78a1,1,0,0,0-2,0v.78l-.55-.55A1,1,0,0,0,29,45.11l.55.55h-.78a1,1,0,1,0,0,2h.78l-.55.55a1,1,0,1,0,1.41,1.41l.55-.55v.78a1,1,0,0,0,2,0v-.78l.55.55A1,1,0,0,0,35,48.21l-.55-.55h.78A1,1,0,0,0,36.19,46.66Z"/><path d="M54.38,46.66a1,1,0,0,0-1-1H52.6l.55-.55a1,1,0,0,0-1.41-1.41l-.55.55v-.78a1,1,0,0,0-2,0v.78l-.55-.55a1,1,0,0,0-1.41,1.41l.55.55H47a1,1,0,0,0,0,2h.78l-.55.55a1,1,0,1,0,1.41,1.41l.55-.55v.78a1,1,0,0,0,2,0v-.78l.55.55a1,1,0,0,0,1.41-1.41l-.55-.55h.78A1,1,0,0,0,54.38,46.66Z"/><path d="M27.1,55.16a1,1,0,0,0-1-1h-.78l.55-.55a1,1,0,0,0-1.41-1.41l-.55.55V52a1,1,0,0,0-2,0v.78l-.55-.55a1,1,0,0,0-1.41,1.41l.55.55h-.78a1,1,0,0,0,0,2h.78l-.55.55a1,1,0,1,0,1.41,1.41l.55-.55v.78a1,1,0,0,0,2,0v-.78l.55.55a1,1,0,0,0,1.41-1.41l-.55-.55h.78A1,1,0,0,0,27.1,55.16Z"/><path d="M45.28,55.16a1,1,0,0,0-1-1h-.78l.55-.55a1,1,0,0,0-1.41-1.41l-.55.55V52a1,1,0,0,0-2,0v.78l-.55-.55a1,1,0,0,0-1.41,1.41l.55.55H37.9a1,1,0,0,0,0,2h.78l-.55.55a1,1,0,1,0,1.41,1.41l.55-.55v.78a1,1,0,0,0,2,0v-.78l.55.55a1,1,0,0,0,1.41-1.41l-.55-.55h.78A1,1,0,0,0,45.28,55.16Z"/></svg>