<?xml version="1.0" ?><svg data-name="Layer 1" id="Layer_1" viewBox="0 0 64 64" xmlns="http://www.w3.org/2000/svg"><title/><path d="M20,26.15a8,8,0,0,0,.09,1.13c0,.06,0,.12,0,.19a8,8,0,0,0,.25,1l.07.2a8,8,0,0,0,.42,1l.06.1a8,8,0,0,0,.56.91l.05.08.54-.31.7-.33h0l.14-.06c.18-.08.36-.14.55-.21s.41-.14.63-.2l.41-.1.56-.11a5.3,5.3,0,0,1,.65-.08h.08l.23,0h.29l0-.17L26.4,29c0-.19.1-.38.16-.56l0-.11c0-.12.08-.24.12-.35a5,5,0,0,1,.24-.62c0-.07.08-.19.14-.31l.07-.15A11,11,0,0,1,28,25.37a4.36,4.36,0,0,1,.34-.47,4.24,4.24,0,0,1,.34-.44c.07-.1.2-.24.34-.39l.7-.71a3.24,3.24,0,0,1,.3-.26l.29-.25.08-.07.36-.27a3.38,3.38,0,0,1,.39-.27l.13-.08.31-.2a9.61,9.61,0,0,1,1-.53l.51-.23c.25-.11.51-.2.78-.3l.08,0A8,8,0,0,0,24.47,19a8.15,8.15,0,0,0-.83.48l-.16.09a7.91,7.91,0,0,0-3.2,4.39A8.08,8.08,0,0,0,20,26.15Z"/><path d="M55.47,35.55a1,1,0,0,1-.89-1.13,4.28,4.28,0,0,0-4.26-4.34l-.41,0-.29,0h0l-.1,0-.12,0a4.08,4.08,0,0,0-.59.18l-.13.06-.16.08h0a4.21,4.21,0,0,0-2.36,3.79,4.26,4.26,0,0,0,.6,2.19,1,1,0,1,1-1.72,1,6.32,6.32,0,0,1-.88-3.2,6.19,6.19,0,0,1,2.75-5.17,9.63,9.63,0,0,0-9.19-6.89c-.31,0-.61,0-.91,0l-.24,0-.24,0-.22,0-.16,0-.1,0-.39.08-.26.07A10.25,10.25,0,0,0,33.9,23l-.44.2a7.39,7.39,0,0,0-.78.42l-.26.17-.17.11a2.48,2.48,0,0,0-.27.18l-.31.23-.33.29-.21.18-.61.62c-.1.11-.2.21-.29.33a3.76,3.76,0,0,0-.28.35,3.29,3.29,0,0,0-.25.35A9.2,9.2,0,0,0,29,27.7l-.08.18c0,.07-.07.14-.1.22a4.58,4.58,0,0,0-.21.53c-.06.15-.08.22-.1.29l0,.12c0,.12-.08.27-.12.42l-.12.5c0,.15-.06.34-.09.51,0,0,0,0,0,0A10.54,10.54,0,0,0,28,31.87c0,.24,0,.48,0,.71a1,1,0,0,1-.91,1.08h-.08a1,1,0,0,1-1-.92c0-.29,0-.59,0-.88s0-.33,0-.49l-.2,0a3.56,3.56,0,0,0-.45.06l-.49.1-.31.07-.48.15a3.92,3.92,0,0,0-.44.17L23.5,32l-.54.27c-.18.1-.37.2-.54.31a5,5,0,0,0-.44.3l-.1.07a7,7,0,0,0-.89.78l-.22.24-.11.11-.21.25a5.4,5.4,0,0,0-.39.51,8,8,0,0,0-1.12,2.38,8.26,8.26,0,0,0-.31,2.26,8.16,8.16,0,0,0,8.15,8.15H54.86a6.06,6.06,0,0,0,.61-12.09ZM28.85,37.89a1,1,0,0,1-1.36-.39q-.23-.42-.43-.86a1,1,0,1,1,1.82-.82c.11.24.23.48.36.71A1,1,0,0,1,28.85,37.89Z"/><path d="M19.24,32.68l.32-.34.33-.32q-.24-.32-.44-.66v0c-.15-.24-.28-.48-.4-.73l-.11-.24c-.08-.18-.16-.36-.24-.54l-.11-.3c-.06-.17-.12-.34-.17-.51l-.09-.32c0-.17-.09-.35-.12-.53s0-.21-.06-.31-.06-.38-.08-.58,0-.18,0-.27c0-.29,0-.57,0-.86a10.2,10.2,0,0,1,.09-1.34c0-.14.05-.28.08-.43.05-.29.11-.58.18-.87s.1-.32.15-.48.17-.51.28-.76.14-.32.22-.48.24-.46.37-.69.18-.3.27-.45.3-.43.47-.64.2-.27.31-.4.39-.42.6-.62.2-.21.31-.31a10,10,0,0,1,1-.79l0,0a7.35,7.35,0,0,0-4.46-1.52l-.61,0a7,7,0,0,0-1.22.21l-.35.1-.3.1-.38.15a7.13,7.13,0,0,0-1.23.68,1.77,1.77,0,0,0-.24.16l-.35.28-.24.21-.28.27-.23.23c-.15.16-.31.36-.47.57l-.22.32a5.81,5.81,0,0,0-.5.88c-.06.12-.11.21-.15.31l0,.09a2,2,0,0,0-.09.24,7.77,7.77,0,0,0-.38,1.45v0h0a8.24,8.24,0,0,0-.07,1.07c0,.19,0,.4,0,.58a1,1,0,0,1-1,1h0a1,1,0,0,1-1-1c0-.22,0-.45,0-.68,0-.05,0-.11,0-.16A6.22,6.22,0,0,0,9.31,36h7.91v0a9.84,9.84,0,0,1,.45-1l.12-.23a10.3,10.3,0,0,1,.58-1,7,7,0,0,1,.5-.66C19,33,19.09,32.83,19.24,32.68Z"/></svg>