<?xml version="1.0" ?><svg data-name="Layer 1" id="Layer_1" viewBox="0 0 64 64" xmlns="http://www.w3.org/2000/svg"><title/><path d="M18.22,10V7.59a1,1,0,1,0-2,0V10a1,1,0,1,0,2,0Z"/><path d="M2,23.81H4.46a1,1,0,0,0,0-2H2a1,1,0,1,0,0,2Z"/><path d="M7.49,14.49a1,1,0,1,0,1.41-1.41L7.17,11.34a1,1,0,1,0-1.41,1.41Z"/><path d="M6.46,34.57a1,1,0,0,0,.71-.29l1.74-1.74a1,1,0,0,0-1.41-1.41L5.76,32.86a1,1,0,0,0,.71,1.71Z"/><path d="M26.25,14.78a1,1,0,0,0,.71-.29l1.74-1.74a1,1,0,0,0-1.41-1.41l-1.74,1.74a1,1,0,0,0,.71,1.71Z"/><path d="M12.61,29l.13-.11.36-.31.51-.41.39-.28.54-.36.41-.24.57-.3.43-.2.61-.25.43-.16.66-.19.42-.11c.25-.06.49-.1.74-.14l.36-.06c.37,0,.75-.08,1.13-.09,0-.19.09-.4.14-.59s.09-.35.16-.55.12-.39.18-.56.18-.47.28-.71v0h0c.08-.21.18-.41.27-.61v0h0a11.75,11.75,0,0,1,.95-1.64h0v0l0,0a6,6,0,0,1,.35-.5c.12-.16.25-.32.38-.47h0l0,0v0c.1-.13.25-.31.41-.48l.41-.43A7.69,7.69,0,1,0,12.61,29Z"/><path d="M54.44,32.71a1,1,0,0,1-.9-1.11,1.48,1.48,0,0,0,0-.15,5.17,5.17,0,0,0-5.17-5.17h-.07a5.18,5.18,0,0,0-.92.09l-.15,0a5.12,5.12,0,0,0-.76.24l-.23.1a5.16,5.16,0,0,0-2.31,7.34,1,1,0,1,1-1.72,1,7.16,7.16,0,0,1,2.25-9.67,11.48,11.48,0,0,0-11-8.33c-.37,0-.73,0-1.09,0h-.11l-.17,0-.12,0-.23,0-.51.08-.37.09-.43.11A12,12,0,0,0,29,18l-.51.23a10.26,10.26,0,0,0-1,.52l-.46.3c-.17.1-.27.18-.38.26l-.09.07-.24.19-.7.61c-.1.09-.19.18-.29.28l-.37.39c-.14.15-.25.27-.35.41s-.25.31-.36.45h0a4.06,4.06,0,0,0-.26.37,10.46,10.46,0,0,0-.87,1.49h0l0,.09c-.06.14-.13.27-.19.41s-.18.42-.25.62-.1.28-.14.41-.11.37-.16.54-.1.4-.14.58h0a11.56,11.56,0,0,0-.23,2.3c0,.28,0,.57,0,.85a1,1,0,0,1-.91,1.08h-.08a1,1,0,0,1-1-.92c0-.34,0-.68,0-1s0-.51,0-.76a9.74,9.74,0,0,0,.63,19.46H34.76l.8-3H29a1,1,0,0,1-1-1.26l3.52-13.15a1,1,0,1,1,1.93.52L30.33,42.27h6.54a1,1,0,0,1,1,1.26l-1,3.74H53.7a7.3,7.3,0,0,0,.73-14.56ZM22.76,34.64a1,1,0,0,1-1.36-.39q-.31-.56-.57-1.14a1,1,0,0,1,1.82-.82q.23.51.5,1A1,1,0,0,1,22.76,34.64Z"/></svg>