<?xml version="1.0" ?><svg data-name="Layer 1" id="Layer_1" viewBox="0 0 64 64" xmlns="http://www.w3.org/2000/svg"><title/><path d="M12.61,23.72l.13-.11.35-.3.52-.42.38-.28.55-.36L15,22l.58-.3.42-.2.62-.25L17,21.1l.66-.19.42-.11c.25-.06.5-.1.75-.14l.36-.06c.37,0,.75-.08,1.13-.09,0-.19.09-.4.14-.6l.14-.5,0-.07v-.05c0-.14.1-.32.16-.48s.18-.48.28-.73h0l0-.08c.07-.17.15-.34.23-.51h0v0a11.91,11.91,0,0,1,1-1.64h0l0,0a5.88,5.88,0,0,1,.34-.49h0c.12-.16.24-.32.38-.47h0v0l0,0c.1-.13.25-.3.41-.48l.41-.43a7.69,7.69,0,1,0-11.32,9.91Z"/><path d="M54.43,27.43a1,1,0,0,1-.89-1.11s0-.1,0-.15A5.17,5.17,0,0,0,48.37,21h-.08a5.17,5.17,0,0,0-.91.09l-.15,0a5.12,5.12,0,0,0-.75.23l-.23.1a5.16,5.16,0,0,0-2.31,7.34,1,1,0,1,1-1.72,1,7.16,7.16,0,0,1,2.25-9.67,11.48,11.48,0,0,0-11-8.33c-.37,0-.73,0-1.09,0h-.11l-.17,0-.12,0-.23,0-.5.08-.37.09-.43.11a11.86,11.86,0,0,0-1.41.5L28.5,13a10.26,10.26,0,0,0-1,.52l-.46.3c-.16.1-.27.18-.37.26l0,0-.06,0-.23.18h0l-.72.61-.29.28-.36.39c-.14.15-.25.27-.35.4s-.25.31-.36.45a4.46,4.46,0,0,0-.27.39,10.55,10.55,0,0,0-.87,1.49h0l-.07.16c-.05.11-.11.22-.15.34s-.18.42-.25.63-.1.28-.14.41-.11.36-.15.53-.1.4-.14.59h0a11.53,11.53,0,0,0-.23,2.3c0,.28,0,.57,0,.85a1,1,0,0,1-.91,1.08h-.08a1,1,0,0,1-1-.92c0-.34,0-.68,0-1s0-.51,0-.76A9.74,9.74,0,0,0,20.69,42h33a7.3,7.3,0,0,0,.73-14.56Zm-31.68,2A1,1,0,0,1,21.4,29q-.31-.56-.57-1.14A1,1,0,1,1,22.64,27q.23.51.5,1A1,1,0,0,1,22.76,29.39Z"/><path d="M17.22,5.77a1,1,0,0,0,1-1V2.32a1,1,0,0,0-2,0V4.77A1,1,0,0,0,17.22,5.77Z"/><path d="M4.46,16.53H2a1,1,0,0,0,0,2H4.46a1,1,0,1,0,0-2Z"/><path d="M7.17,6.07A1,1,0,0,0,5.76,7.48L7.49,9.22A1,1,0,0,0,8.91,7.8Z"/><path d="M7.49,25.85,5.76,27.59A1,1,0,1,0,7.17,29l1.74-1.74a1,1,0,0,0-1.41-1.41Z"/><path d="M26.25,9.51A1,1,0,0,0,27,9.22l1.74-1.74a1,1,0,0,0-1.41-1.41L25.54,7.8a1,1,0,0,0,.71,1.71Z"/><path d="M21.76,50a1,1,0,0,0-1-1H20l.55-.55A1,1,0,0,0,19.11,47l-.55.55V46.8a1,1,0,0,0-2,0v.78L16,47a1,1,0,0,0-1.41,1.41l.55.55h-.78a1,1,0,0,0,0,2h.78l-.55.55A1,1,0,1,0,16,52.95l.55-.55v.78a1,1,0,0,0,2,0V52.4l.55.55a1,1,0,0,0,1.41-1.41L20,51h.78A1,1,0,0,0,21.76,50Z"/><path d="M39.94,50a1,1,0,0,0-1-1h-.78l.55-.55A1,1,0,0,0,37.3,47l-.55.55V46.8a1,1,0,0,0-2,0v.78L34.2,47a1,1,0,0,0-1.41,1.41l.55.55h-.78a1,1,0,1,0,0,2h.78l-.55.55a1,1,0,1,0,1.41,1.41l.55-.55v.78a1,1,0,0,0,2,0V52.4l.55.55a1,1,0,0,0,1.41-1.41L38.16,51h.78A1,1,0,0,0,39.94,50Z"/><path d="M58.13,50a1,1,0,0,0-1-1h-.78l.55-.55A1,1,0,0,0,55.48,47l-.55.55V46.8a1,1,0,0,0-2,0v.78L52.39,47A1,1,0,0,0,51,48.44l.55.55h-.78a1,1,0,0,0,0,2h.78l-.55.55a1,1,0,1,0,1.41,1.41l.55-.55v.78a1,1,0,0,0,2,0V52.4l.55.55a1,1,0,0,0,1.41-1.41L56.35,51h.78A1,1,0,0,0,58.13,50Z"/><path d="M30.85,58.49a1,1,0,0,0-1-1h-.78l.55-.55a1,1,0,0,0-1.41-1.41l-.55.55V55.3a1,1,0,0,0-2,0v.78l-.55-.55a1,1,0,0,0-1.41,1.41l.55.55h-.78a1,1,0,1,0,0,2h.78l-.55.55a1,1,0,1,0,1.41,1.41l.55-.55v.78a1,1,0,0,0,2,0v-.78l.55.55A1,1,0,0,0,29.62,60l-.55-.55h.78A1,1,0,0,0,30.85,58.49Z"/><path d="M49,58.49a1,1,0,0,0-1-1h-.78l.55-.55a1,1,0,0,0-1.41-1.41l-.55.55V55.3a1,1,0,0,0-2,0v.78l-.55-.55a1,1,0,0,0-1.41,1.41l.55.55h-.78a1,1,0,0,0,0,2h.78l-.55.55a1,1,0,1,0,1.41,1.41l.55-.55v.78a1,1,0,0,0,2,0v-.78l.55.55A1,1,0,0,0,47.81,60l-.55-.55H48A1,1,0,0,0,49,58.49Z"/></svg>