<?xml version="1.0" ?><svg data-name="Layer 1" id="Layer_1" viewBox="0 0 64 64" xmlns="http://www.w3.org/2000/svg"><title/><path d="M48.91,13l.37-1a1,1,0,1,0-1.87-.72l-.37,1A20.68,20.68,0,0,0,21.18,24.42a1,1,0,0,0,.57,1.29l17.46,6.77L32,51.07A5.71,5.71,0,0,0,42.64,55.2a1,1,0,0,0-1.87-.72,3.71,3.71,0,0,1-6.92-2.68l7.21-18.59L58.53,40a1,1,0,0,0,1.29-.57A20.74,20.74,0,0,0,48.91,13Zm-11.52.67a18.14,18.14,0,0,0-7.7,9.25,19.91,19.91,0,0,0-1,3.35l-5.29-2.05a18.59,18.59,0,0,1,9.52-9.44A18.79,18.79,0,0,1,38,13.36C37.8,13.46,37.59,13.56,37.39,13.67ZM58.3,37.75,53,35.7a20,20,0,0,0,1.54-3.13,18,18,0,0,0,.29-12.69,18.79,18.79,0,0,1,2.79,4.48A18.58,18.58,0,0,1,58.3,37.75Z"/><path d="M26,8.63a3.47,3.47,0,0,0-6.94,0,1,1,0,0,0,2,0,1.47,1.47,0,1,1,1.47,1.47H3.77a1,1,0,0,0,0,2H22.48A3.48,3.48,0,0,0,26,8.63Z"/><path d="M28.92,32.09a3.48,3.48,0,0,0-3.47,3.47,1,1,0,0,0,2,0A1.47,1.47,0,1,1,28.92,37H10.2a1,1,0,0,0,0,2H28.92a3.47,3.47,0,1,0,0-6.94Z"/></svg>